<svg width="48" height="48" viewBox="0 0 48 48" fill="none" xmlns="http://www.w3.org/2000/svg">
<mask id="mask0_2154_29063" style="mask-type:luminance" maskUnits="userSpaceOnUse" x="13" y="31" width="12" height="13">
<path d="M19.2492 43.3245C22.3059 43.1123 24.6164 40.4458 24.6164 37.3815V33.9682C24.6164 32.7597 23.6384 31.7797 22.4299 31.7797H19.4177C15.9501 31.7797 13.2838 34.0902 13.0718 37.1472C12.8277 40.6639 15.7324 43.5686 19.2492 43.3245Z" fill="white"/>
</mask>
<g mask="url(#mask0_2154_29063)">
<path d="M19.2492 43.3245C22.3059 43.1123 24.6164 40.4458 24.6164 37.3815V33.9682C24.6164 32.7597 23.6384 31.7797 22.4299 31.7797H19.4177C15.9501 31.7797 13.2838 34.0902 13.0718 37.1472C12.8277 40.6639 15.7324 43.5686 19.2492 43.3245Z" fill="url(#paint0_linear_2154_29063)"/>
</g>
<mask id="mask1_2154_29063" style="mask-type:luminance" maskUnits="userSpaceOnUse" x="3" y="18" width="33" height="11">
<path d="M27.707 28.9509H4.77821C3.94269 28.9509 3.26532 28.4799 3.26532 27.8985V23.1125C3.26532 20.3953 6.43204 18.1924 10.3384 18.1924H34.572C35.047 18.1924 35.4324 18.4605 35.4324 18.7909V23.5769C35.4324 26.5451 31.9737 28.9509 27.707 28.9509Z" fill="white"/>
</mask>
<g mask="url(#mask1_2154_29063)">
<path d="M27.707 28.9509H4.77821C3.94269 28.9509 3.26532 28.4799 3.26532 27.8985V23.1125C3.26532 20.3953 6.43204 18.1924 10.3384 18.1924H34.572C35.047 18.1924 35.4324 18.4605 35.4324 18.7909V23.5769C35.4324 26.5451 31.9737 28.9509 27.707 28.9509Z" fill="url(#paint1_linear_2154_29063)"/>
</g>
<mask id="mask2_2154_29063" style="mask-type:luminance" maskUnits="userSpaceOnUse" x="13" y="4" width="32" height="12">
<path d="M38.4021 15.3652H14.8903C14.2052 15.3652 13.6499 14.8098 13.6499 14.125V10.4061C13.6499 7.2031 16.2463 4.60673 19.449 4.60673H44.0306C44.4202 4.60673 44.7359 4.9228 44.7359 5.31208V9.03098C44.7359 12.5295 41.9002 15.3652 38.4021 15.3652Z" fill="white"/>
</mask>
<g mask="url(#mask2_2154_29063)">
<path d="M38.4021 15.3652H14.8903C14.2052 15.3652 13.6499 14.8098 13.6499 14.125V10.4061C13.6499 7.2031 16.2463 4.60673 19.449 4.60673H44.0306C44.4202 4.60673 44.7359 4.9228 44.7359 5.31208V9.03098C44.7359 12.5295 41.9002 15.3652 38.4021 15.3652Z" fill="url(#paint2_linear_2154_29063)"/>
</g>
<defs>
<linearGradient id="paint0_linear_2154_29063" x1="14.1338" y1="33.601" x2="23.712" y2="39.9658" gradientUnits="userSpaceOnUse">
<stop stop-color="#EC0F68"/>
<stop offset="1" stop-color="#F0414E"/>
</linearGradient>
<linearGradient id="paint1_linear_2154_29063" x1="8.95491" y1="16.7004" x2="19.6133" y2="30.9915" gradientUnits="userSpaceOnUse">
<stop stop-color="#EC0F68"/>
<stop offset="1" stop-color="#F0414E"/>
</linearGradient>
<linearGradient id="paint2_linear_2154_29063" x1="19.8778" y1="1.14696" x2="34.1713" y2="14.4781" gradientUnits="userSpaceOnUse">
<stop stop-color="#EC0F68"/>
<stop offset="1" stop-color="#F0414E"/>
</linearGradient>
</defs>
</svg>
