<svg width="175" height="50" viewBox="0 0 175 50" fill="none" xmlns="http://www.w3.org/2000/svg">
<path d="M53.7258 29V9.32018H58.1022V29H53.7258ZM57.0708 21.2786V17.5155H66.9108V21.2786H57.0708ZM57.0708 13.0833V9.32018H67.3568V13.0833H57.0708ZM69.7775 29V15.4527H74.0424V29H69.7775ZM71.9239 13.5851C71.2549 13.5851 70.6974 13.3621 70.2514 12.9161C69.824 12.4515 69.6103 11.894 69.6103 11.2436C69.6103 10.5746 69.824 10.0171 70.2514 9.57106C70.6974 9.12506 71.2549 8.90205 71.9239 8.90205C72.5929 8.90205 73.1411 9.12506 73.5685 9.57106C73.996 10.0171 74.2097 10.5746 74.2097 11.2436C74.2097 11.894 73.996 12.4515 73.5685 12.9161C73.1411 13.3621 72.5929 13.5851 71.9239 13.5851ZM83.7358 29.3066C82.2677 29.3066 80.9575 29.0093 79.8054 28.4146C78.6718 27.8014 77.7798 26.9558 77.1294 25.878C76.4789 24.8002 76.1537 23.5829 76.1537 22.2264C76.1537 20.8698 76.4697 19.6618 77.1015 18.6026C77.7519 17.5248 78.6253 16.6792 79.7218 16.066C80.8182 15.4527 82.054 15.1461 83.4291 15.1461C84.7671 15.1461 85.9472 15.4341 86.9693 16.0102C87.9914 16.5863 88.7905 17.3854 89.3665 18.4075C89.9612 19.4295 90.2585 20.6003 90.2585 21.9197C90.2585 22.1613 90.24 22.4215 90.2028 22.7002C90.1842 22.9604 90.1377 23.267 90.0634 23.6201L78.3837 23.648V20.7211L88.2515 20.6932L86.4118 21.9197C86.3932 21.1392 86.2724 20.4981 86.0494 19.9963C85.8264 19.476 85.4919 19.0858 85.0459 18.8256C84.6185 18.5468 84.0889 18.4075 83.457 18.4075C82.788 18.4075 82.2026 18.5654 81.7009 18.8813C81.2177 19.1787 80.8368 19.6061 80.558 20.1636C80.2978 20.7211 80.1678 21.3994 80.1678 22.1985C80.1678 22.9976 80.3071 23.6851 80.5859 24.2612C80.8832 24.8187 81.292 25.2554 81.8124 25.5714C82.3513 25.8687 82.9831 26.0174 83.7079 26.0174C84.3769 26.0174 84.9809 25.9059 85.5198 25.6829C86.0587 25.4413 86.5326 25.0882 86.9414 24.6236L89.2829 26.9651C88.6139 27.7456 87.8055 28.331 86.8578 28.7212C85.91 29.1115 84.8694 29.3066 83.7358 29.3066ZM91.453 26.4912L98.2546 17.9336H103.439L96.6378 26.4912H91.453ZM91.453 29V26.4912L94.4914 25.432H103.272V29H91.453ZM91.9548 19.0207V15.4527H103.439V17.9336L100.429 19.0207H91.9548ZM112.128 29.3066C110.66 29.3066 109.35 29.0093 108.198 28.4146C107.064 27.8014 106.172 26.9558 105.522 25.878C104.871 24.8002 104.546 23.5829 104.546 22.2264C104.546 20.8698 104.862 19.6618 105.494 18.6026C106.144 17.5248 107.018 16.6792 108.114 16.066C109.21 15.4527 110.446 15.1461 111.821 15.1461C113.159 15.1461 114.34 15.4341 115.362 16.0102C116.384 16.5863 117.183 17.3854 117.759 18.4075C118.354 19.4295 118.651 20.6003 118.651 21.9197C118.651 22.1613 118.632 22.4215 118.595 22.7002C118.577 22.9604 118.53 23.267 118.456 23.6201L106.776 23.648V20.7211L116.644 20.6932L114.804 21.9197C114.786 21.1392 114.665 20.4981 114.442 19.9963C114.219 19.476 113.884 19.0858 113.438 18.8256C113.011 18.5468 112.481 18.4075 111.849 18.4075C111.18 18.4075 110.595 18.5654 110.093 18.8813C109.61 19.1787 109.229 19.6061 108.95 20.1636C108.69 20.7211 108.56 21.3994 108.56 22.1985C108.56 22.9976 108.699 23.6851 108.978 24.2612C109.276 24.8187 109.684 25.2554 110.205 25.5714C110.744 25.8687 111.375 26.0174 112.1 26.0174C112.769 26.0174 113.373 25.9059 113.912 25.6829C114.451 25.4413 114.925 25.0882 115.334 24.6236L117.675 26.9651C117.006 27.7456 116.198 28.331 115.25 28.7212C114.302 29.1115 113.262 29.3066 112.128 29.3066ZM122.333 29V9.84981H126.598V29H122.333ZM119.267 19.0765V15.4527H129.665V19.0765H119.267ZM137.962 29.3066C136.493 29.3066 135.183 29.0093 134.031 28.4146C132.898 27.8014 132.006 26.9558 131.355 25.878C130.705 24.8002 130.38 23.5829 130.38 22.2264C130.38 20.8698 130.695 19.6618 131.327 18.6026C131.978 17.5248 132.851 16.6792 133.948 16.066C135.044 15.4527 136.28 15.1461 137.655 15.1461C138.993 15.1461 140.173 15.4341 141.195 16.0102C142.217 16.5863 143.016 17.3854 143.592 18.4075C144.187 19.4295 144.484 20.6003 144.484 21.9197C144.484 22.1613 144.466 22.4215 144.429 22.7002C144.41 22.9604 144.364 23.267 144.289 23.6201L132.61 23.648V20.7211L142.477 20.6932L140.638 21.9197C140.619 21.1392 140.498 20.4981 140.275 19.9963C140.052 19.476 139.718 19.0858 139.272 18.8256C138.844 18.5468 138.315 18.4075 137.683 18.4075C137.014 18.4075 136.428 18.5654 135.927 18.8813C135.443 19.1787 135.063 19.6061 134.784 20.1636C134.524 20.7211 134.394 21.3994 134.394 22.1985C134.394 22.9976 134.533 23.6851 134.812 24.2612C135.109 24.8187 135.518 25.2554 136.038 25.5714C136.577 25.8687 137.209 26.0174 137.934 26.0174C138.603 26.0174 139.207 25.9059 139.746 25.6829C140.284 25.4413 140.758 25.0882 141.167 24.6236L143.509 26.9651C142.84 27.7456 142.031 28.331 141.084 28.7212C140.136 29.1115 139.095 29.3066 137.962 29.3066ZM153.094 29.3066C151.7 29.3066 150.436 29 149.303 28.3867C148.169 27.7735 147.277 26.928 146.627 25.8501C145.976 24.7723 145.651 23.5644 145.651 22.2264C145.651 20.8698 145.976 19.6618 146.627 18.6026C147.296 17.5248 148.197 16.6792 149.33 16.066C150.464 15.4527 151.737 15.1461 153.149 15.1461C154.209 15.1461 155.175 15.3319 156.048 15.7036C156.94 16.0567 157.73 16.5956 158.418 17.3203L155.686 20.0521C155.37 19.699 154.998 19.4388 154.571 19.2716C154.162 19.1043 153.688 19.0207 153.149 19.0207C152.536 19.0207 151.988 19.1601 151.505 19.4388C151.04 19.699 150.668 20.0707 150.39 20.5538C150.13 21.0184 149.999 21.5666 149.999 22.1985C149.999 22.8303 150.13 23.3878 150.39 23.871C150.668 24.3542 151.049 24.7351 151.533 25.0139C152.016 25.2926 152.555 25.432 153.149 25.432C153.707 25.432 154.199 25.3391 154.627 25.1532C155.073 24.9488 155.454 24.6701 155.77 24.317L158.473 27.0487C157.767 27.7921 156.968 28.3589 156.076 28.7491C155.184 29.1208 154.19 29.3066 153.094 29.3066ZM169.32 29V21.2786C169.32 20.5724 169.097 20.0056 168.651 19.5782C168.223 19.1322 167.675 18.9092 167.006 18.9092C166.541 18.9092 166.132 19.0114 165.779 19.2158C165.426 19.4017 165.148 19.6804 164.943 20.0521C164.739 20.4052 164.636 20.814 164.636 21.2786L162.992 20.4702C162.992 19.411 163.215 18.4818 163.661 17.6827C164.107 16.8836 164.729 16.2704 165.528 15.843C166.328 15.397 167.247 15.174 168.288 15.174C169.347 15.174 170.277 15.397 171.076 15.843C171.875 16.2704 172.488 16.8743 172.915 17.6548C173.361 18.4168 173.584 19.3088 173.584 20.3308V29H169.32ZM160.372 29V8.76268H164.636V29H160.372Z" fill="white"/>
<path d="M52.6235 46.0615V39.3484H53.5328V46.0615H52.6235ZM58.2128 46.0615V43.3821C58.2128 43.0338 58.1031 42.7469 57.8839 42.5212C57.6646 42.2955 57.3809 42.1826 57.0326 42.1826C56.8005 42.1826 56.5941 42.2342 56.4136 42.3374C56.233 42.4406 56.0911 42.5824 55.9879 42.763C55.8848 42.9436 55.8332 43.1499 55.8332 43.3821L55.4753 43.1789C55.4753 42.8307 55.5527 42.5212 55.7074 42.2503C55.8622 41.9795 56.0782 41.7667 56.3555 41.6119C56.6328 41.4507 56.9456 41.3701 57.2938 41.3701C57.642 41.3701 57.9484 41.4571 58.2128 41.6312C58.4836 41.8054 58.6964 42.0343 58.8512 42.318C59.0059 42.5953 59.0833 42.892 59.0833 43.208V46.0615H58.2128ZM54.9626 46.0615V41.4668H55.8332V46.0615H54.9626ZM62.9802 46.0615V39.5419H63.8508V46.0615H62.9802ZM61.8485 42.26V41.4668H64.9826V42.26H61.8485ZM69.0855 46.0615V43.3821C69.0855 43.0338 68.9759 42.7469 68.7567 42.5212C68.5374 42.2955 68.2537 42.1826 67.9054 42.1826C67.6733 42.1826 67.4669 42.2342 67.2863 42.3374C67.1058 42.4406 66.9639 42.5824 66.8607 42.763C66.7575 42.9436 66.706 43.1499 66.706 43.3821L66.3481 43.1789C66.3481 42.8307 66.4254 42.5212 66.5802 42.2503C66.735 41.9795 66.951 41.7667 67.2283 41.6119C67.5056 41.4507 67.8184 41.3701 68.1666 41.3701C68.5148 41.3701 68.8211 41.4475 69.0855 41.6022C69.3564 41.757 69.5692 41.973 69.724 42.2503C69.8787 42.5276 69.9561 42.8468 69.9561 43.208V46.0615H69.0855ZM65.8354 46.0615V39.1549H66.706V46.0615H65.8354ZM73.2629 46.1583C72.805 46.1583 72.3923 46.0551 72.0247 45.8487C71.6571 45.6359 71.367 45.3489 71.1541 44.9878C70.9413 44.6267 70.8349 44.2172 70.8349 43.7593C70.8349 43.3079 70.9381 42.9016 71.1445 42.5405C71.3573 42.1794 71.641 41.8956 71.9957 41.6893C72.3568 41.4765 72.7599 41.3701 73.2048 41.3701C73.6305 41.3701 74.0045 41.4668 74.3269 41.6603C74.6558 41.8537 74.9105 42.1213 75.0911 42.4631C75.2781 42.8049 75.3716 43.1918 75.3716 43.6239C75.3716 43.6884 75.3684 43.7593 75.3619 43.8367C75.3555 43.9076 75.3426 43.9915 75.3232 44.0882H71.4443V43.3627H74.8589L74.5397 43.6432C74.5397 43.3337 74.4849 43.0725 74.3753 42.8597C74.2657 42.6405 74.1109 42.4728 73.911 42.3567C73.7111 42.2342 73.4692 42.1729 73.1855 42.1729C72.8889 42.1729 72.6277 42.2374 72.402 42.3664C72.1763 42.4954 72.0022 42.6759 71.8796 42.9081C71.7571 43.1402 71.6958 43.4143 71.6958 43.7303C71.6958 44.0527 71.7603 44.3365 71.8893 44.5815C72.0183 44.8201 72.2021 45.0072 72.4407 45.1426C72.6793 45.2716 72.9533 45.336 73.2629 45.336C73.5208 45.336 73.7562 45.2909 73.969 45.2006C74.1883 45.1103 74.3753 44.9749 74.5301 44.7943L75.0911 45.3651C74.8718 45.623 74.601 45.8197 74.2786 45.9551C73.9626 46.0905 73.624 46.1583 73.2629 46.1583ZM79.7936 46.1583C79.5356 46.1583 79.2906 46.126 79.0584 46.0615C78.8327 45.9906 78.6231 45.8939 78.4297 45.7713C78.2362 45.6424 78.0685 45.4908 77.9267 45.3167L78.4877 44.7557C78.6554 44.962 78.8488 45.1168 79.0681 45.22C79.2874 45.3167 79.5324 45.3651 79.8033 45.3651C80.0741 45.3651 80.2837 45.3199 80.432 45.2296C80.5803 45.1329 80.6545 45.0007 80.6545 44.833C80.6545 44.6654 80.5932 44.5364 80.4707 44.4461C80.3546 44.3494 80.2031 44.272 80.0161 44.214C79.829 44.1495 79.6291 44.0882 79.4163 44.0302C79.21 43.9657 79.0133 43.8851 78.8263 43.7883C78.6393 43.6916 78.4845 43.5594 78.362 43.3917C78.2459 43.2241 78.1878 43.0016 78.1878 42.7243C78.1878 42.447 78.2556 42.2084 78.391 42.0085C78.5264 41.8021 78.7134 41.6441 78.952 41.5345C79.1971 41.4249 79.4905 41.3701 79.8323 41.3701C80.1934 41.3701 80.5126 41.4346 80.7899 41.5635C81.0737 41.6861 81.3058 41.8731 81.4864 42.1246L80.9253 42.6856C80.7964 42.5179 80.6351 42.389 80.4417 42.2987C80.2547 42.2084 80.0419 42.1633 79.8033 42.1633C79.5518 42.1633 79.3583 42.2084 79.2229 42.2987C79.0939 42.3825 79.0294 42.5018 79.0294 42.6566C79.0294 42.8114 79.0874 42.9307 79.2035 43.0145C79.3196 43.0983 79.4711 43.1693 79.6582 43.2273C79.8516 43.2853 80.0515 43.3466 80.2579 43.4111C80.4642 43.4691 80.6609 43.5497 80.8479 43.6529C81.035 43.7561 81.1865 43.8947 81.3026 44.0689C81.4251 44.243 81.4864 44.4719 81.4864 44.7557C81.4864 45.1877 81.3316 45.5295 81.0221 45.781C80.719 46.0325 80.3095 46.1583 79.7936 46.1583ZM84.5891 46.1583C84.1312 46.1583 83.7185 46.0551 83.3509 45.8487C82.9834 45.6359 82.6932 45.3489 82.4804 44.9878C82.2675 44.6267 82.1611 44.2172 82.1611 43.7593C82.1611 43.3079 82.2643 42.9016 82.4707 42.5405C82.6835 42.1794 82.9672 41.8956 83.3219 41.6893C83.683 41.4765 84.0861 41.3701 84.5311 41.3701C84.9567 41.3701 85.3307 41.4668 85.6531 41.6603C85.982 41.8537 86.2367 42.1213 86.4173 42.4631C86.6043 42.8049 86.6978 43.1918 86.6978 43.6239C86.6978 43.6884 86.6946 43.7593 86.6882 43.8367C86.6817 43.9076 86.6688 43.9915 86.6495 44.0882H82.7705V43.3627H86.1852L85.8659 43.6432C85.8659 43.3337 85.8111 43.0725 85.7015 42.8597C85.5919 42.6405 85.4371 42.4728 85.2372 42.3567C85.0373 42.2342 84.7955 42.1729 84.5117 42.1729C84.2151 42.1729 83.9539 42.2374 83.7282 42.3664C83.5025 42.4954 83.3284 42.6759 83.2058 42.9081C83.0833 43.1402 83.022 43.4143 83.022 43.7303C83.022 44.0527 83.0865 44.3365 83.2155 44.5815C83.3445 44.8201 83.5283 45.0072 83.7669 45.1426C84.0055 45.2716 84.2796 45.336 84.5891 45.336C84.847 45.336 85.0824 45.2909 85.2952 45.2006C85.5145 45.1103 85.7015 44.9749 85.8563 44.7943L86.4173 45.3651C86.198 45.623 85.9272 45.8197 85.6048 45.9551C85.2888 46.0905 84.9502 46.1583 84.5891 46.1583ZM89.601 46.1583C89.1819 46.1583 88.8014 46.0551 88.4596 45.8487C88.1178 45.6359 87.847 45.3489 87.6471 44.9878C87.4536 44.6267 87.3569 44.2204 87.3569 43.769C87.3569 43.3176 87.4536 42.9113 87.6471 42.5502C87.847 42.1891 88.1146 41.9021 88.4499 41.6893C88.7917 41.4765 89.1754 41.3701 89.601 41.3701C89.9493 41.3701 90.2588 41.4442 90.5297 41.5926C90.807 41.7344 91.0294 41.9343 91.1971 42.1923C91.3648 42.4438 91.4583 42.7372 91.4776 43.0725V44.4558C91.4583 44.7847 91.3648 45.0781 91.1971 45.336C91.0359 45.594 90.8166 45.7971 90.5393 45.9454C90.2685 46.0873 89.9557 46.1583 89.601 46.1583ZM89.7461 45.336C90.1782 45.336 90.5264 45.1909 90.7908 44.9008C91.0552 44.6041 91.1874 44.2269 91.1874 43.769C91.1874 43.453 91.1262 43.1789 91.0036 42.9468C90.8876 42.7082 90.7199 42.5244 90.5006 42.3954C90.2814 42.26 90.0267 42.1923 89.7365 42.1923C89.4463 42.1923 89.1883 42.26 88.9626 42.3954C88.7434 42.5308 88.5692 42.7179 88.4403 42.9565C88.3177 43.1886 88.2565 43.4562 88.2565 43.7593C88.2565 44.0689 88.3177 44.3429 88.4403 44.5815C88.5692 44.8137 88.7466 44.9975 88.9723 45.1329C89.198 45.2683 89.4559 45.336 89.7461 45.336ZM91.1294 46.0615V44.8234L91.2938 43.7013L91.1294 42.5889V41.4668H92.0096V46.0615H91.1294ZM93.2771 46.0615V41.4668H94.1477V46.0615H93.2771ZM94.1477 43.4401L93.8188 43.295C93.8188 42.7082 93.9542 42.2407 94.2251 41.8924C94.4959 41.5442 94.8861 41.3701 95.3955 41.3701C95.6277 41.3701 95.8373 41.412 96.0243 41.4958C96.2113 41.5732 96.3854 41.7054 96.5466 41.8924L95.9759 42.4825C95.8792 42.3793 95.7728 42.3051 95.6567 42.26C95.5406 42.2149 95.4052 42.1923 95.2504 42.1923C94.928 42.1923 94.6636 42.2955 94.4572 42.5018C94.2509 42.7082 94.1477 43.0209 94.1477 43.4401ZM99.1075 46.1583C98.6561 46.1583 98.2466 46.0519 97.879 45.839C97.5179 45.6262 97.2309 45.3393 97.0181 44.9781C96.8118 44.6106 96.7086 44.2043 96.7086 43.7593C96.7086 43.3079 96.8118 42.9016 97.0181 42.5405C97.2309 42.1794 97.5179 41.8956 97.879 41.6893C98.2466 41.4765 98.6561 41.3701 99.1075 41.3701C99.4622 41.3701 99.7911 41.4378 100.094 41.5732C100.397 41.7022 100.658 41.8924 100.878 42.1439L100.297 42.7243C100.155 42.5566 99.9813 42.4309 99.7749 42.3471C99.575 42.2568 99.3526 42.2116 99.1075 42.2116C98.8173 42.2116 98.5594 42.2793 98.3337 42.4148C98.1079 42.5437 97.9306 42.7243 97.8016 42.9565C97.6727 43.1886 97.6082 43.4562 97.6082 43.7593C97.6082 44.0624 97.6727 44.33 97.8016 44.5622C97.9306 44.7943 98.1079 44.9781 98.3337 45.1136C98.5594 45.249 98.8173 45.3167 99.1075 45.3167C99.3526 45.3167 99.575 45.2748 99.7749 45.1909C99.9813 45.1007 100.159 44.9717 100.307 44.804L100.878 45.3844C100.665 45.6295 100.404 45.8197 100.094 45.9551C99.7911 46.0905 99.4622 46.1583 99.1075 46.1583ZM104.991 46.0615V43.3821C104.991 43.0338 104.882 42.7469 104.662 42.5212C104.443 42.2955 104.159 42.1826 103.811 42.1826C103.579 42.1826 103.373 42.2342 103.192 42.3374C103.011 42.4406 102.87 42.5824 102.766 42.763C102.663 42.9436 102.612 43.1499 102.612 43.3821L102.254 43.1789C102.254 42.8307 102.331 42.5212 102.486 42.2503C102.641 41.9795 102.857 41.7667 103.134 41.6119C103.411 41.4507 103.724 41.3701 104.072 41.3701C104.421 41.3701 104.727 41.4475 104.991 41.6022C105.262 41.757 105.475 41.973 105.63 42.2503C105.784 42.5276 105.862 42.8468 105.862 43.208V46.0615H104.991ZM101.741 46.0615V39.1549H102.612V46.0615H101.741ZM111.152 46.1583C110.7 46.1583 110.294 46.0519 109.933 45.839C109.572 45.6262 109.285 45.3393 109.072 44.9781C108.859 44.6106 108.753 44.2011 108.753 43.7497C108.753 43.3047 108.859 42.9049 109.072 42.5502C109.285 42.1891 109.572 41.9021 109.933 41.6893C110.294 41.4765 110.7 41.3701 111.152 41.3701C111.597 41.3701 112 41.4765 112.361 41.6893C112.728 41.8956 113.019 42.1794 113.231 42.5405C113.444 42.9016 113.551 43.3047 113.551 43.7497C113.551 44.2011 113.444 44.6106 113.231 44.9781C113.019 45.3393 112.728 45.6262 112.361 45.839C112 46.0519 111.597 46.1583 111.152 46.1583ZM111.152 45.3167C111.442 45.3167 111.7 45.249 111.925 45.1136C112.151 44.9781 112.329 44.7943 112.458 44.5622C112.586 44.3236 112.651 44.0527 112.651 43.7497C112.651 43.453 112.583 43.1886 112.448 42.9565C112.319 42.7243 112.142 42.5437 111.916 42.4148C111.697 42.2793 111.442 42.2116 111.152 42.2116C110.861 42.2116 110.603 42.2793 110.378 42.4148C110.152 42.5437 109.975 42.7243 109.846 42.9565C109.717 43.1886 109.652 43.453 109.652 43.7497C109.652 44.0527 109.717 44.3236 109.846 44.5622C109.975 44.7943 110.152 44.9781 110.378 45.1136C110.603 45.249 110.861 45.3167 111.152 45.3167ZM115.048 46.0615V40.78C115.048 40.4382 115.122 40.1416 115.27 39.8901C115.418 39.6321 115.621 39.429 115.879 39.2807C116.144 39.1324 116.45 39.0582 116.798 39.0582C117.063 39.0582 117.292 39.1033 117.485 39.1936C117.679 39.2839 117.856 39.4161 118.017 39.5902L117.446 40.1513C117.363 40.061 117.269 39.9933 117.166 39.9481C117.063 39.8965 116.937 39.8707 116.789 39.8707C116.511 39.8707 116.295 39.9514 116.141 40.1126C115.992 40.2738 115.918 40.4963 115.918 40.78V46.0615H115.048ZM113.916 42.26V41.4668H117.379V42.26H113.916ZM120.275 46.0615V41.4668H121.146V46.0615H120.275ZM120.71 40.5479C120.549 40.5479 120.417 40.4963 120.314 40.3931C120.211 40.2835 120.159 40.148 120.159 39.9868C120.159 39.832 120.211 39.7031 120.314 39.5999C120.417 39.4903 120.549 39.4355 120.71 39.4355C120.872 39.4355 121.004 39.4903 121.107 39.5999C121.21 39.7031 121.262 39.832 121.262 39.9868C121.262 40.148 121.21 40.2835 121.107 40.3931C121.004 40.4963 120.872 40.5479 120.71 40.5479ZM125.679 46.0615V43.3821C125.679 43.0338 125.569 42.7469 125.35 42.5212C125.131 42.2955 124.847 42.1826 124.499 42.1826C124.267 42.1826 124.06 42.2342 123.88 42.3374C123.699 42.4406 123.557 42.5824 123.454 42.763C123.351 42.9436 123.299 43.1499 123.299 43.3821L122.941 43.1789C122.941 42.8307 123.019 42.5212 123.173 42.2503C123.328 41.9795 123.544 41.7667 123.822 41.6119C124.099 41.4507 124.412 41.3701 124.76 41.3701C125.108 41.3701 125.414 41.4571 125.679 41.6312C125.95 41.8054 126.162 42.0343 126.317 42.318C126.472 42.5953 126.549 42.892 126.549 43.208V46.0615H125.679ZM122.429 46.0615V41.4668H123.299V46.0615H122.429ZM130.978 46.0615V43.3821C130.978 43.0338 130.869 42.7469 130.649 42.5212C130.43 42.2955 130.146 42.1826 129.798 42.1826C129.566 42.1826 129.36 42.2342 129.179 42.3374C128.998 42.4406 128.857 42.5824 128.753 42.763C128.65 42.9436 128.599 43.1499 128.599 43.3821L128.241 43.1789C128.241 42.8307 128.318 42.5212 128.473 42.2503C128.628 41.9795 128.844 41.7667 129.121 41.6119C129.398 41.4507 129.711 41.3701 130.059 41.3701C130.408 41.3701 130.714 41.4571 130.978 41.6312C131.249 41.8054 131.462 42.0343 131.617 42.318C131.771 42.5953 131.849 42.892 131.849 43.208V46.0615H130.978ZM127.728 46.0615V41.4668H128.599V46.0615H127.728ZM135.127 46.1583C134.675 46.1583 134.269 46.0519 133.908 45.839C133.547 45.6262 133.26 45.3393 133.047 44.9781C132.834 44.6106 132.728 44.2011 132.728 43.7497C132.728 43.3047 132.834 42.9049 133.047 42.5502C133.26 42.1891 133.547 41.9021 133.908 41.6893C134.269 41.4765 134.675 41.3701 135.127 41.3701C135.572 41.3701 135.975 41.4765 136.336 41.6893C136.703 41.8956 136.993 42.1794 137.206 42.5405C137.419 42.9016 137.525 43.3047 137.525 43.7497C137.525 44.2011 137.419 44.6106 137.206 44.9781C136.993 45.3393 136.703 45.6262 136.336 45.839C135.975 46.0519 135.572 46.1583 135.127 46.1583ZM135.127 45.3167C135.417 45.3167 135.675 45.249 135.9 45.1136C136.126 44.9781 136.303 44.7943 136.432 44.5622C136.561 44.3236 136.626 44.0527 136.626 43.7497C136.626 43.453 136.558 43.1886 136.423 42.9565C136.294 42.7243 136.116 42.5437 135.891 42.4148C135.671 42.2793 135.417 42.2116 135.127 42.2116C134.836 42.2116 134.578 42.2793 134.353 42.4148C134.127 42.5437 133.95 42.7243 133.821 42.9565C133.692 43.1886 133.627 43.453 133.627 43.7497C133.627 44.0527 133.692 44.3236 133.821 44.5622C133.95 44.7943 134.127 44.9781 134.353 45.1136C134.578 45.249 134.836 45.3167 135.127 45.3167ZM139.904 46.0615L137.795 41.4668H138.762L140.455 45.3457H139.894L141.596 41.4668H142.525L140.416 46.0615H139.904ZM145.042 46.1583C144.623 46.1583 144.242 46.0551 143.9 45.8487C143.559 45.6359 143.288 45.3489 143.088 44.9878C142.894 44.6267 142.798 44.2204 142.798 43.769C142.798 43.3176 142.894 42.9113 143.088 42.5502C143.288 42.1891 143.555 41.9021 143.891 41.6893C144.233 41.4765 144.616 41.3701 145.042 41.3701C145.39 41.3701 145.7 41.4442 145.97 41.5926C146.248 41.7344 146.47 41.9343 146.638 42.1923C146.806 42.4438 146.899 42.7372 146.918 43.0725V44.4558C146.899 44.7847 146.806 45.0781 146.638 45.336C146.477 45.594 146.257 45.7971 145.98 45.9454C145.709 46.0873 145.397 46.1583 145.042 46.1583ZM145.187 45.336C145.619 45.336 145.967 45.1909 146.232 44.9008C146.496 44.6041 146.628 44.2269 146.628 43.769C146.628 43.453 146.567 43.1789 146.444 42.9468C146.328 42.7082 146.161 42.5244 145.941 42.3954C145.722 42.26 145.467 42.1923 145.177 42.1923C144.887 42.1923 144.629 42.26 144.403 42.3954C144.184 42.5308 144.01 42.7179 143.881 42.9565C143.759 43.1886 143.697 43.4562 143.697 43.7593C143.697 44.0689 143.759 44.3429 143.881 44.5815C144.01 44.8137 144.187 44.9975 144.413 45.1329C144.639 45.2683 144.897 45.336 145.187 45.336ZM146.57 46.0615V44.8234L146.735 43.7013L146.57 42.5889V41.4668H147.45V46.0615H146.57ZM149.405 46.0615V39.5419H150.276V46.0615H149.405ZM148.273 42.26V41.4668H151.408V42.26H148.273ZM152.27 46.0615V41.4668H153.141V46.0615H152.27ZM152.705 40.5479C152.544 40.5479 152.412 40.4963 152.309 40.3931C152.206 40.2835 152.154 40.148 152.154 39.9868C152.154 39.832 152.206 39.7031 152.309 39.5999C152.412 39.4903 152.544 39.4355 152.705 39.4355C152.867 39.4355 152.999 39.4903 153.102 39.5999C153.205 39.7031 153.257 39.832 153.257 39.9868C153.257 40.148 153.205 40.2835 153.102 40.3931C152.999 40.4963 152.867 40.5479 152.705 40.5479ZM156.523 46.1583C156.071 46.1583 155.665 46.0519 155.304 45.839C154.943 45.6262 154.656 45.3393 154.443 44.9781C154.23 44.6106 154.124 44.2011 154.124 43.7497C154.124 43.3047 154.23 42.9049 154.443 42.5502C154.656 42.1891 154.943 41.9021 155.304 41.6893C155.665 41.4765 156.071 41.3701 156.523 41.3701C156.968 41.3701 157.371 41.4765 157.732 41.6893C158.099 41.8956 158.39 42.1794 158.602 42.5405C158.815 42.9016 158.922 43.3047 158.922 43.7497C158.922 44.2011 158.815 44.6106 158.602 44.9781C158.39 45.3393 158.099 45.6262 157.732 45.839C157.371 46.0519 156.968 46.1583 156.523 46.1583ZM156.523 45.3167C156.813 45.3167 157.071 45.249 157.296 45.1136C157.522 44.9781 157.7 44.7943 157.828 44.5622C157.957 44.3236 158.022 44.0527 158.022 43.7497C158.022 43.453 157.954 43.1886 157.819 42.9565C157.69 42.7243 157.512 42.5437 157.287 42.4148C157.068 42.2793 156.813 42.2116 156.523 42.2116C156.232 42.2116 155.974 42.2793 155.749 42.4148C155.523 42.5437 155.346 42.7243 155.217 42.9565C155.088 43.1886 155.023 43.453 155.023 43.7497C155.023 44.0527 155.088 44.3236 155.217 44.5622C155.346 44.7943 155.523 44.9781 155.749 45.1136C155.974 45.249 156.232 45.3167 156.523 45.3167ZM163.153 46.0615V43.3821C163.153 43.0338 163.043 42.7469 162.824 42.5212C162.604 42.2955 162.321 42.1826 161.972 42.1826C161.74 42.1826 161.534 42.2342 161.353 42.3374C161.173 42.4406 161.031 42.5824 160.928 42.763C160.825 42.9436 160.773 43.1499 160.773 43.3821L160.415 43.1789C160.415 42.8307 160.493 42.5212 160.647 42.2503C160.802 41.9795 161.018 41.7667 161.295 41.6119C161.573 41.4507 161.885 41.3701 162.234 41.3701C162.582 41.3701 162.888 41.4571 163.153 41.6312C163.423 41.8054 163.636 42.0343 163.791 42.318C163.946 42.5953 164.023 42.892 164.023 43.208V46.0615H163.153ZM159.902 46.0615V41.4668H160.773V46.0615H159.902Z" fill="white"/>
<mask id="mask0_2155_30814" style="mask-type:luminance" maskUnits="userSpaceOnUse" x="10" y="35" width="13" height="13">
<path d="M16.8961 47.8061C20.1273 47.5818 22.5696 44.7631 22.5696 41.524V37.9159C22.5696 36.6384 21.5358 35.6025 20.2583 35.6025H17.0743C13.4087 35.6025 10.5903 38.0449 10.3662 41.2762C10.1082 44.9936 13.1786 48.0641 16.8961 47.8061Z" fill="white"/>
</mask>
<g mask="url(#mask0_2155_30814)">
<path d="M16.8961 47.8061C20.1273 47.5818 22.5696 44.7631 22.5696 41.524V37.9159C22.5696 36.6384 21.5358 35.6025 20.2583 35.6025H17.0743C13.4087 35.6025 10.5903 38.0449 10.3662 41.2762C10.1082 44.9936 13.1786 48.0641 16.8961 47.8061Z" fill="white"/>
</g>
<mask id="mask1_2155_30814" style="mask-type:luminance" maskUnits="userSpaceOnUse" x="0" y="21" width="35" height="12">
<path d="M25.8365 32.6138H1.59922C0.716022 32.6138 0 32.1159 0 31.5013V26.4421C0 23.5698 3.34743 21.2413 7.47669 21.2413H33.0933C33.5954 21.2413 34.0027 21.5246 34.0027 21.8739V26.9331C34.0027 30.0707 30.3467 32.6138 25.8365 32.6138Z" fill="white"/>
</mask>
<g mask="url(#mask1_2155_30814)">
<path d="M25.8365 32.6138H1.59922C0.716022 32.6138 0 32.1159 0 31.5013V26.4421C0 23.5698 3.34743 21.2413 7.47669 21.2413H33.0933C33.5954 21.2413 34.0027 21.5246 34.0027 21.8739V26.9331C34.0027 30.0707 30.3467 32.6138 25.8365 32.6138Z" fill="white"/>
</g>
<mask id="mask2_2155_30814" style="mask-type:luminance" maskUnits="userSpaceOnUse" x="10" y="6" width="34" height="13">
<path d="M37.1436 18.2524H12.2901C11.5659 18.2524 10.9789 17.6653 10.9789 16.9414V13.0103C10.9789 9.62452 13.7235 6.87998 17.109 6.87998H43.0933C43.5052 6.87998 43.8389 7.21409 43.8389 7.62559V11.5567C43.8389 15.2549 40.8414 18.2524 37.1436 18.2524Z" fill="white"/>
</mask>
<g mask="url(#mask2_2155_30814)">
<path d="M37.1436 18.2524H12.2901C11.5659 18.2524 10.9789 17.6653 10.9789 16.9414V13.0103C10.9789 9.62452 13.7235 6.87998 17.109 6.87998H43.0933C43.5052 6.87998 43.8389 7.21409 43.8389 7.62559V11.5567C43.8389 15.2549 40.8414 18.2524 37.1436 18.2524Z" fill="white"/>
</g>
</svg>
